<svg width="31" height="30" viewBox="0 0 31 30" fill="none" xmlns="http://www.w3.org/2000/svg">
<path d="M15.6349 29.9183C23.8966 29.9183 30.594 23.2208 30.594 14.9591C30.594 6.69743 23.8966 0 15.6349 0C7.37321 0 0.675781 6.69743 0.675781 14.9591C0.675781 23.2208 7.37321 29.9183 15.6349 29.9183Z" fill="#FF5B00"/>
<path d="M23.8909 9.89102C23.4005 10.1363 22.8283 10.2997 22.2561 10.3815C22.5013 10.2997 22.91 9.89102 23.0735 9.64579C23.3187 9.31882 23.4822 8.99184 23.6457 8.66487V8.58312H23.564C22.91 8.9101 22.2561 9.15533 21.6021 9.31882C21.5204 9.31882 21.5204 9.31882 21.4386 9.31882C21.3569 9.23707 21.3569 9.15533 21.2751 9.15533C20.9482 8.9101 20.7029 8.74661 20.2942 8.58312C19.8037 8.41963 19.3133 8.33789 18.8228 8.33789C18.3324 8.33789 17.8419 8.50138 17.4332 8.74661C17.0244 8.99184 16.6157 9.31882 16.2888 9.64579C15.9618 10.0545 15.7165 10.4632 15.6348 10.9537C15.5531 11.4442 15.5531 11.8529 15.6348 12.3433C15.6348 12.4251 15.6348 12.4251 15.5531 12.4251C12.8555 12.0164 10.6484 11.0354 8.85006 8.99184C8.76832 8.9101 8.76832 8.9101 8.68658 8.99184C7.86914 10.218 8.27785 12.0981 9.25878 12.9973C9.42227 13.1608 9.50401 13.2425 9.6675 13.3243C9.58576 13.3243 8.93181 13.2425 8.3596 12.9973C8.27786 12.9155 8.27786 12.9973 8.19611 13.079C8.19611 13.2425 8.19611 13.3243 8.19611 13.4878C8.3596 14.7139 9.17704 15.7766 10.3215 16.267C10.4849 16.3488 10.5667 16.3488 10.7302 16.4305C10.4849 16.5123 10.2397 16.5123 9.42227 16.4305C9.34053 16.4305 9.25878 16.4305 9.34052 16.5123C9.91273 18.0654 11.1389 18.4741 12.0381 18.7194C12.1198 18.7194 12.2833 18.7194 12.3651 18.8011C12.0381 19.2916 11.0571 19.6185 10.5667 19.782C9.6675 20.109 8.68658 20.1908 7.78739 20.109C7.62391 20.109 7.6239 20.109 7.54216 20.109C7.46042 20.109 7.54216 20.1908 7.6239 20.1908C7.78739 20.3542 8.03263 20.436 8.19611 20.5177C8.76832 20.8447 9.42227 21.0899 10.0762 21.2534C13.4277 22.1526 17.1879 21.4987 19.722 19.0463C21.6839 17.0845 22.4195 14.3869 22.4195 11.6894C22.4195 11.6076 22.583 11.5259 22.583 11.4442C23.0735 11.0354 23.4822 10.6267 23.8909 10.0545C23.9727 10.0545 23.9727 9.89102 23.8909 9.89102C23.9727 9.89102 23.9727 9.89102 23.8909 9.89102C23.9727 9.80928 23.9727 9.80928 23.8909 9.89102Z" fill="white"/>
</svg>
