<svg width="30" height="30" viewBox="0 0 30 30" fill="none" xmlns="http://www.w3.org/2000/svg">
<path d="M30 14.9591C30 6.703 23.297 0 14.9591 0C6.703 0 0 6.703 0 14.9591C0 22.4796 5.47684 28.6921 12.6703 29.7548V19.3733H8.82834V15.0409H12.6703V11.7711C12.6703 8.0109 14.8774 5.9673 18.3106 5.9673C19.9455 5.9673 21.6621 6.29428 21.6621 6.29428V9.80926H19.782C17.9019 9.80926 17.3297 10.9537 17.3297 12.1798V14.9591H21.4986L20.8447 19.2916H17.3297V29.7548C24.5232 28.6921 30 22.4796 30 14.9591Z" fill="#FF5B00"/>
<path d="M20.8445 19.3733L21.4984 15.0409H17.3295V12.2616C17.3295 11.0354 17.9017 9.89103 19.7818 9.89103H21.6619V6.13081C21.6619 6.13081 19.9453 5.80383 18.3104 5.80383C14.8772 5.80383 12.6701 7.84743 12.6701 11.6076V14.8774H8.82812V19.2098H12.6701V29.673C13.4058 29.7548 14.2232 29.8365 15.0407 29.8365C15.8581 29.8365 16.5938 29.7548 17.4112 29.673V19.3733H20.8445Z" fill="white"/>
</svg>
