<svg width="31" height="30" viewBox="0 0 31 30" fill="none" xmlns="http://www.w3.org/2000/svg">
<path d="M15.6936 29.9504C23.9551 29.9504 30.6523 23.2532 30.6523 14.9917C30.6523 6.73021 23.9551 0.032959 15.6936 0.032959C7.43212 0.032959 0.734863 6.73021 0.734863 14.9917C0.734863 23.2532 7.43212 29.9504 15.6936 29.9504Z" fill="#FF5B00"/>
<path d="M7.62988 23.4605L8.85604 18.8011C8.12035 17.4932 7.79337 16.1036 7.79337 14.6322C7.79337 9.89103 11.6353 6.04907 16.3765 6.04907C21.1176 6.04907 24.9596 9.89103 24.9596 14.6322C24.9596 19.3733 21.1176 23.2153 16.3765 23.2153C14.9868 23.2153 13.5154 22.8883 12.2893 22.1526L7.62988 23.4605ZM12.5345 20.5177L12.8615 20.6812C13.9242 21.3352 15.1503 21.6622 16.4582 21.6622C20.3002 21.6622 23.4064 18.5559 23.4064 14.7139C23.4064 10.872 20.3002 7.76569 16.4582 7.76569C12.6162 7.76569 9.50998 10.872 9.50998 14.7139C9.50998 16.0218 9.83697 17.248 10.4909 18.3107L10.6544 18.6376L9.9187 21.2534L12.5345 20.5177Z" fill="white"/>
<path fill-rule="evenodd" clip-rule="evenodd" d="M19.646 15.8583C19.319 15.6131 18.8286 15.4496 18.4199 15.6131C18.0929 15.7766 17.9294 16.267 17.6842 16.5122C17.6024 16.6757 17.4389 16.6757 17.2754 16.594C16.0493 16.1035 15.1501 15.2861 14.4961 14.2234C14.4144 14.0599 14.4144 13.8964 14.5779 13.733C14.7414 13.4877 15.0683 13.2425 15.0683 12.9155C15.1501 12.5885 14.9866 12.2616 14.8231 11.9346C14.6596 11.6076 14.4961 11.0354 14.0874 10.8719C13.7604 10.7084 13.3517 10.7902 13.0248 11.0354C12.5343 11.4441 12.2891 12.0981 12.2891 12.752C12.2891 12.9155 12.2891 13.1607 12.3708 13.3242C12.4525 13.733 12.6978 14.1417 12.8613 14.5504C13.0248 14.8774 13.1882 15.1226 13.4335 15.3678C14.0874 16.267 14.9049 17.0027 15.8041 17.5749C16.2945 17.8201 16.785 18.1471 17.2754 18.3106C17.8476 18.4741 18.3381 18.7193 18.9921 18.5558C19.646 18.3924 20.3 18.0654 20.5452 17.4114C20.6269 17.2479 20.6269 17.0027 20.6269 16.8392C20.5452 16.267 19.973 16.0218 19.646 15.8583Z" fill="white"/>
</svg>
