<svg width="31" height="30" viewBox="0 0 31 30" fill="none" xmlns="http://www.w3.org/2000/svg">
<path d="M15.4552 0C7.19909 0 0.496094 6.703 0.496094 14.9591C0.496094 21.0899 4.17457 26.3215 9.40618 28.6104C9.40618 28.2016 9.40618 27.7929 9.40618 27.3842C9.48792 25.9128 9.65141 25.4223 11.5315 17.4932C11.5315 17.4114 11.5315 17.248 11.4498 17.1662C10.9593 15.9401 10.8776 14.7139 11.2863 13.4877C12.1037 10.7902 15.21 10.545 15.7005 12.8338C16.0274 14.2234 15.1282 16.0218 14.4743 18.6376C13.9021 20.8447 16.5179 22.3978 18.725 20.7629C20.7686 19.2916 21.586 15.7766 21.4225 13.2425C21.0955 8.25613 15.6187 7.11172 12.1855 8.74659C8.18001 10.6267 7.28084 15.5313 9.0792 17.8202C9.32443 18.1471 9.48792 18.3106 9.40618 18.5559C9.32443 19.0463 9.16094 19.455 9.0792 19.9455C8.99746 20.2725 8.67048 20.436 8.3435 20.2725C7.68955 20.0272 7.11735 19.6185 6.70863 19.0463C5.15549 17.1662 4.74678 13.406 6.79038 10.218C8.99746 6.703 13.1664 5.31335 17.0084 5.72207C21.586 6.21253 24.4471 9.3188 24.9375 12.9155C25.1827 14.5504 25.0193 18.4741 22.7304 21.2534C20.1146 24.4414 15.9457 24.6866 13.9838 22.7248C13.8204 22.5613 13.7386 22.3978 13.5751 22.2343C13.5751 22.3161 13.4934 22.3978 13.4934 22.3978C12.5942 26.0763 12.4307 26.8937 11.5315 28.5286C11.368 28.7738 11.2045 29.0191 11.0411 29.2643C12.4307 29.673 13.9021 29.9183 15.4552 29.9183C23.7113 29.9183 30.4961 23.2153 30.4961 14.9591C30.4144 6.703 23.7113 0 15.4552 0Z" fill="#FF5B00"/>
<path d="M13.4116 22.3978C13.4116 22.316 13.4116 22.2343 13.4934 22.2343C13.6569 22.3978 13.7386 22.5613 13.9021 22.7248C15.8639 24.6866 20.0329 24.5231 22.6487 21.2534C24.9375 18.4741 25.101 14.4686 24.8558 12.9155C24.2836 9.4005 21.4225 6.29423 16.9266 5.72203C13.0846 5.31331 8.91571 6.70295 6.70862 10.2179C4.66503 13.406 5.15549 17.1662 6.62688 19.0463C7.0356 19.6185 7.60781 20.0272 8.26176 20.2724C8.58873 20.4359 8.91571 20.2724 8.99745 19.9455C9.16094 19.455 9.24269 19.0463 9.32443 18.5558C9.40618 18.2288 9.24269 18.0654 8.99745 17.8201C7.19909 15.5313 8.09827 10.6267 12.1037 8.74655C15.6187 7.11167 21.0956 8.25609 21.3408 13.2425C21.5043 15.7765 20.6868 19.2915 18.6432 20.7629C16.4361 22.3978 13.8203 20.8446 14.3926 18.6376C15.0465 15.94 15.9457 14.1416 15.6187 12.8337C15.0465 10.6267 12.022 10.7901 11.2045 13.4877C10.7958 14.7139 10.8776 15.94 11.368 17.1662C11.368 17.2479 11.4498 17.4114 11.4498 17.4931C9.56966 25.4223 9.40618 25.9128 9.32443 27.3842C9.32443 27.7929 9.32443 28.2016 9.32443 28.6103C9.89664 28.8555 10.3871 29.1008 10.9593 29.2643C11.1228 29.019 11.2863 28.7738 11.4498 28.5286C12.4307 26.8937 12.5124 26.0763 13.4116 22.3978Z" fill="white"/>
</svg>
